<svg viewBox="0 0 100 100" xmlns="http://www.w3.org/2000/svg" aria-hidden="true">
  <circle cx="50" cy="50" r="48" fill="currentColor" opacity="0.12"/>
  <g opacity="0.85">
    <rect x="24" y="52" width="52" height="30" fill="currentColor" opacity="0.30"/>
    <rect x="24" y="52" width="52" height="30" fill="none" stroke="currentColor" stroke-width="3"/>
    <rect x="20" y="42" width="16" height="40" fill="currentColor" opacity="0.30"/>
    <rect x="20" y="42" width="16" height="40" fill="none" stroke="currentColor" stroke-width="3"/>
    <rect x="64" y="42" width="16" height="40" fill="currentColor" opacity="0.30"/>
    <rect x="64" y="42" width="16" height="40" fill="none" stroke="currentColor" stroke-width="3"/>
    <path d="M20 42 h4 v-5 h4 v5 h4 v-5 h4 v5" fill="currentColor"/>
    <path d="M64 42 h4 v-5 h4 v5 h4 v-5 h4 v5" fill="currentColor"/>
    <path d="M30 52 v-5 h5 v5 M43 52 v-6 h6 v6 M57 52 v-5 h5 v5" fill="currentColor"/>
  </g>
  <path d="M44 82 v-14 a6 6 0 0 1 12 0 v14 Z" fill="currentColor" opacity="0.65"/>
</svg>
