<svg viewBox="0 0 100 100" xmlns="http://www.w3.org/2000/svg" aria-hidden="true">
  <circle cx="50" cy="50" r="48" fill="currentColor" opacity="0.12"/>
  <path d="M56 22 L78 29 V50 C78 63 68 74 56 79 C44 74 34 63 34 50 V29 Z" fill="currentColor" opacity="0.28"/>
  <path d="M56 22 L78 29 V50 C78 63 68 74 56 79 C44 74 34 63 34 50 V29 Z" fill="none" stroke="currentColor" stroke-width="3" opacity="0.8"/>
  <g opacity="0.9">
    <path d="M24 78 L30 72 L60 30 L64 26 L66 34 L34 76 Z" fill="currentColor"/>
    <line x1="26" y1="66" x2="40" y2="80" stroke="currentColor" stroke-width="5" stroke-linecap="round"/>
    <line x1="24" y1="78" x2="18" y2="84" stroke="currentColor" stroke-width="5" stroke-linecap="round"/>
    <circle cx="16" cy="86" r="3.5" fill="currentColor"/>
  </g>
</svg>
