<svg viewBox="0 0 100 100" xmlns="http://www.w3.org/2000/svg" aria-hidden="true">
  <circle cx="50" cy="50" r="48" fill="currentColor" opacity="0.12"/>
  <g stroke="currentColor" stroke-linecap="round" fill="none">
    <g opacity="0.9" stroke-width="3" transform="translate(46,46)">
      <g id="fl"><line x1="0" y1="0" x2="0" y2="-22"/><line x1="0" y1="-14" x2="-6" y2="-20"/><line x1="0" y1="-14" x2="6" y2="-20"/></g>
      <use href="#fl" transform="rotate(60)"/><use href="#fl" transform="rotate(120)"/>
      <use href="#fl" transform="rotate(180)"/><use href="#fl" transform="rotate(240)"/><use href="#fl" transform="rotate(300)"/>
    </g>
    <g opacity="0.6" stroke-width="2.2" transform="translate(76,26)">
      <g id="fs"><line x1="0" y1="0" x2="0" y2="-11"/><line x1="0" y1="-7" x2="-4" y2="-11"/><line x1="0" y1="-7" x2="4" y2="-11"/></g>
      <use href="#fs" transform="rotate(60)"/><use href="#fs" transform="rotate(120)"/>
      <use href="#fs" transform="rotate(180)"/><use href="#fs" transform="rotate(240)"/><use href="#fs" transform="rotate(300)"/>
    </g>
    <g opacity="0.5" stroke-width="2" transform="translate(24,74)">
      <g id="ft"><line x1="0" y1="0" x2="0" y2="-9"/><line x1="0" y1="-6" x2="-3" y2="-9"/><line x1="0" y1="-6" x2="3" y2="-9"/></g>
      <use href="#ft" transform="rotate(60)"/><use href="#ft" transform="rotate(120)"/>
      <use href="#ft" transform="rotate(180)"/><use href="#ft" transform="rotate(240)"/><use href="#ft" transform="rotate(300)"/>
    </g>
  </g>
</svg>
